# xmcd CD database file
#
# Track frame offsets:
#	150
#	52985
#	106755
#	159595
#	195105
#	237418
#	286245
#
# Disc length: 4293 seconds
#
# Revision: 0
# Processed by: cddbd v1.5.2PL0 Copyright (c) Steve Scherf et al.
# Submitted via: CDex 1.70beta2
#
DISCID=4f10c307
DTITLE=Herbert, Joos - Ballads
DYEAR=1991
DGENRE=Jazz
TTITLE0=Ballade noir
TTITLE1=Medley: Shadow of your smile - When I fall in love /Every..
TTITLE2=Jamina (Take II)
TTITLE3=Heavy chicken (Take II)
TTITLE4=Amely
TTITLE5=Jamina ( Take I)
TTITLE6=Heavy chicken (Take I)
EXTD=YEAR: 1991
EXTT0=
EXTT1=
EXTT2=
EXTT3=
EXTT4=
EXTT5=
EXTT6=
PLAYORDER=
